<svg xmlns="http://www.w3.org/2000/svg" width="21.048" height="21.489" viewBox="0 0 21.048 21.489">
  <g id="Grupo_4316" data-name="Grupo 4316" transform="translate(-12590.163 18874.367)">
    <path id="Trazado_1069" data-name="Trazado 1069" d="M183.192,312.477a.764.764,0,0,0-.754.754v4.963a1.434,1.434,0,0,1-1.257,1.571H165.726a1.434,1.434,0,0,1-1.257-1.571v-4.964a.764.764,0,0,0-.754-.754.811.811,0,0,0-.754.754v4.964a2.976,2.976,0,0,0,2.827,3.142h15.394a2.976,2.976,0,0,0,2.827-3.142v-4.964a.822.822,0,0,0-.817-.754Z" transform="translate(12427.202 -19174.215)"/>
    <path id="Trazado_1070" data-name="Trazado 1070" d="M236.351,94.145l4.021-4.021V103.57a.764.764,0,0,0,.754.754.811.811,0,0,0,.754-.754V90.124l4.021,4.021a.936.936,0,0,0,.565.251.767.767,0,0,0,.565-.251.8.8,0,0,0,0-1.131l-5.341-5.341a.774.774,0,0,0-1.194-.063l-5.341,5.341a.8.8,0,0,0,0,1.131A.876.876,0,0,0,236.351,94.145Z" transform="translate(12359.278 -18961.727)"/>
  </g>
</svg>
