<svg xmlns="http://www.w3.org/2000/svg" width="21.102" height="15.827" viewBox="0 0 21.102 15.827">
  <g id="noun-conversation-1298713" transform="translate(-70.002 -93.33)">
    <path id="Trazado_1493" data-name="Trazado 1493" d="M256.67,95.968V94.649a1.319,1.319,0,0,1,1.319-1.319h11.43a1.319,1.319,0,0,1,1.319,1.319v7.913a1.319,1.319,0,0,1-1.319,1.319h-1.1l-1.187,1.583a.439.439,0,0,1-.7,0l-1.187-1.583h-.659V98.166a2.2,2.2,0,0,0-2.2-2.2Z" transform="translate(-179.634)"/>
    <path id="Trazado_1494" data-name="Trazado 1494" d="M72.42,197.221h-1.1A1.319,1.319,0,0,1,70,195.9v-7.913a1.319,1.319,0,0,1,1.319-1.319h11.43a1.319,1.319,0,0,1,1.319,1.319V195.9a1.319,1.319,0,0,1-1.319,1.319H75.5L74.31,198.8a.44.44,0,0,1-.7,0Z" transform="translate(0 -89.823)"/>
    <path id="Trazado_1495" data-name="Trazado 1495" d="M165.091,304.213a.879.879,0,1,1-.879-.879.879.879,0,0,1,.879.879" transform="translate(-89.813 -202.091)" fill-rule="evenodd"/>
    <path id="Trazado_1496" data-name="Trazado 1496" d="M235.091,304.213a.879.879,0,1,1-.879-.879.879.879,0,0,1,.879.879" transform="translate(-157.175 -202.091)" fill-rule="evenodd"/>
    <path id="Trazado_1497" data-name="Trazado 1497" d="M305.091,304.213a.879.879,0,1,1-.879-.879.879.879,0,0,1,.879.879" transform="translate(-224.538 -202.091)" fill-rule="evenodd"/>
  </g>
</svg>
