<svg xmlns="http://www.w3.org/2000/svg" width="18.799" height="18.799" viewBox="0 0 18.799 18.799">
  <path id="Icon_zocial-instagram" data-name="Icon zocial-instagram" d="M1.713.173A2.235,2.235,0,0,0,.684.757a2.068,2.068,0,0,0-.569.981C.049,2,.045,2.245.045,9.5c0,8.151-.015,7.7.2,8.162a2.193,2.193,0,0,0,1.069,1.062c.474.209.011.2,8.224.187L17.1,18.9l.235-.081a2.228,2.228,0,0,0,1.411-1.411l.081-.235.007-7.567c.011-8.4.029-7.776-.239-8.32a2.182,2.182,0,0,0-.929-.929C17.133.1,17.743.115,9.427.118,3.068.122,1.9.129,1.713.173ZM16.354,2.41c.3.213.309.235.32,1.635.011,1.363,0,1.433-.22,1.649-.2.2-.3.209-1.627.206l-1.212,0-.165-.088a.9.9,0,0,1-.272-.257l-.11-.162,0-1.216c0-.665.011-1.271.029-1.341a.686.686,0,0,1,.375-.463l.184-.092,1.275.011L16.2,2.3ZM10.176,5.977A3.646,3.646,0,0,1,12.99,8.805,4.487,4.487,0,0,1,13.03,10a3.7,3.7,0,0,1-1.884,2.7,3.942,3.942,0,0,1-.97.36c-.07.007-.217.029-.327.048a3.629,3.629,0,0,1-3.277-1.4,3.594,3.594,0,0,1,.07-4.463A3.662,3.662,0,0,1,9.067,5.926,3.834,3.834,0,0,1,10.176,5.977Zm-6.4,2.384a5.829,5.829,0,0,0,.485,3.728,5.4,5.4,0,0,0,1.1,1.51,5.729,5.729,0,0,0,5,1.631,5.819,5.819,0,0,0,4.68-4.261,5.7,5.7,0,0,0,.151-2.057,4.045,4.045,0,0,0-.151-.793c-.011-.018-.007-.033.011-.037.14-.015,1.568-.011,1.594.007s.029,1.642.026,4.1l-.011,4.081-.11.158a.918.918,0,0,1-.275.242l-.165.084L9.4,16.743l-6.7-.007-.151-.1a.966.966,0,0,1-.235-.239l-.088-.14L2.216,12.2c0-2.233,0-4.074.007-4.1a3.953,3.953,0,0,1,.819-.037h.8Z" transform="translate(-0.044 -0.117)"/>
</svg>
