<svg xmlns="http://www.w3.org/2000/svg" width="26.527" height="18.651" viewBox="0 0 26.527 18.651">
  <path id="Icon_awesome-youtube" data-name="Icon awesome-youtube" d="M27.023,7.418a3.333,3.333,0,0,0-2.345-2.36C22.609,4.5,14.313,4.5,14.313,4.5s-8.3,0-10.364.558A3.333,3.333,0,0,0,1.6,7.418a34.963,34.963,0,0,0-.554,6.426A34.963,34.963,0,0,0,1.6,20.27,3.283,3.283,0,0,0,3.95,22.593c2.069.558,10.364.558,10.364.558s8.3,0,10.364-.558a3.283,3.283,0,0,0,2.345-2.323,34.963,34.963,0,0,0,.554-6.426A34.963,34.963,0,0,0,27.023,7.418ZM11.6,17.788V9.9l6.933,3.944L11.6,17.788Z" transform="translate(-1.05 -4.5)"/>
</svg>
