<svg xmlns="http://www.w3.org/2000/svg" width="21.242" height="21.725" viewBox="0 0 21.242 21.725">
  <g id="Grupo_4315" data-name="Grupo 4315" transform="translate(-657.816 -1176.03)">
    <path id="Trazado_1005" data-name="Trazado 1005" d="M150.262,60.375v-1.83a.787.787,0,0,1,1.574,0v1.83h7.173v-1.83a.787.787,0,0,1,1.574,0v1.83h2.252a3.208,3.208,0,0,1,3.208,3.208v2a.242.242,0,0,1-.242.242H145.044a.242.242,0,0,1-.242-.242v-2a3.208,3.208,0,0,1,3.208-3.208Z" transform="translate(513.015 1118.271)"/>
    <path id="Trazado_1006" data-name="Trazado 1006" d="M145.035,241.7a.242.242,0,0,0-.242.242v8.631A3.208,3.208,0,0,0,148,253.781h14.826a3.208,3.208,0,0,0,3.208-3.208v-8.631a.242.242,0,0,0-.242-.242Zm6.323,3.007a1.211,1.211,0,1,1-1.211-1.211A1.211,1.211,0,0,1,151.358,244.707Zm4.057,1.211a1.211,1.211,0,1,0-1.211-1.211A1.211,1.211,0,0,0,155.414,245.918Zm6.478-1.211a1.211,1.211,0,1,1-1.211-1.211A1.211,1.211,0,0,1,161.892,244.707Zm-11.745,5.482a1.211,1.211,0,1,0-1.211-1.211A1.211,1.211,0,0,0,150.147,250.189Zm6.478-1.211a1.211,1.211,0,1,1-1.211-1.211A1.211,1.211,0,0,1,156.625,248.978Zm4.057,1.211a1.211,1.211,0,1,0-1.211-1.211A1.211,1.211,0,0,0,160.681,250.189Z" transform="translate(513.023 943.973)" fill-rule="evenodd"/>
  </g>
</svg>
