<svg xmlns="http://www.w3.org/2000/svg" width="19.837" height="19.835" viewBox="0 0 19.837 19.835">
  <path id="Icon_awesome-linkedin-in" data-name="Icon awesome-linkedin-in" d="M4.44,19.836H.328V6.593H4.44ZM2.382,4.787a2.393,2.393,0,1,1,2.382-2.4A2.4,2.4,0,0,1,2.382,4.787ZM19.833,19.836h-4.1V13.389c0-1.536-.031-3.507-2.138-3.507-2.138,0-2.466,1.669-2.466,3.4v6.557H7.017V6.593h3.944V8.4h.058A4.322,4.322,0,0,1,14.91,6.261c4.162,0,4.927,2.741,4.927,6.3v7.275Z" transform="translate(0 -0.001)"/>
</svg>
