<svg xmlns="http://www.w3.org/2000/svg" width="14.697" height="20.926" viewBox="0 0 14.697 20.926">
  <g id="Grupo_4314" data-name="Grupo 4314" transform="translate(-623.057 -1292.723)">
    <path id="Trazado_1002" data-name="Trazado 1002" d="M210.495,79.138a1.993,1.993,0,0,1,1.993-1.993H223.2a1.993,1.993,0,0,1,1.993,1.993v.238a9.01,9.01,0,0,1-3.16,6.709l-.032.027-1.554,1.221a.374.374,0,0,0,0,.552l.017.014L221.9,89.11a8.4,8.4,0,0,1,2.326,2.824.234.234,0,0,1-.212.339H211.669a.234.234,0,0,1-.212-.339,9.506,9.506,0,0,1,2.2-2.8l.032-.027,1.554-1.221a.374.374,0,0,0,0-.551l-1.55-1.218a8.326,8.326,0,0,1-3.2-6.738Z" transform="translate(412.563 1215.578)"/>
    <path id="Trazado_1003" data-name="Trazado 1003" d="M210.933,396.35a.237.237,0,0,0-.233.184,8.29,8.29,0,0,0-.2,1.812v.238a1.993,1.993,0,0,0,1.993,1.993H223.2a1.993,1.993,0,0,0,1.993-1.993v-.238a8.212,8.212,0,0,0-.207-1.812.237.237,0,0,0-.233-.184Z" transform="translate(412.558 913.072)"/>
  </g>
</svg>
