<svg xmlns="http://www.w3.org/2000/svg" width="23.049" height="18.719" viewBox="0 0 23.049 18.719">
  <path id="Icon_awesome-twitter" data-name="Icon awesome-twitter" d="M20.68,8.046c.015.2.015.41.015.614A13.348,13.348,0,0,1,7.254,22.1,13.35,13.35,0,0,1,0,19.979a9.773,9.773,0,0,0,1.141.058A9.461,9.461,0,0,0,7.005,18.02a4.732,4.732,0,0,1-4.417-3.276,5.957,5.957,0,0,0,.892.073,5,5,0,0,0,1.243-.161A4.724,4.724,0,0,1,.936,10.02V9.962a4.758,4.758,0,0,0,2.135.6A4.731,4.731,0,0,1,1.609,4.244a13.428,13.428,0,0,0,9.74,4.943A5.332,5.332,0,0,1,11.232,8.1a4.728,4.728,0,0,1,8.175-3.232,9.3,9.3,0,0,0,3-1.141,4.711,4.711,0,0,1-2.077,2.6,9.471,9.471,0,0,0,2.72-.731A10.154,10.154,0,0,1,20.68,8.046Z" transform="translate(0 -3.381)"/>
</svg>
