<svg xmlns="http://www.w3.org/2000/svg" width="19.326" height="24.157" viewBox="0 0 19.326 24.157">
  <path id="Trazado_1487" data-name="Trazado 1487" d="M180.463,56a6.642,6.642,0,0,0-6.643,6.643v4.227h-1.812a1.205,1.205,0,0,0-1.208,1.208V78.949a1.205,1.205,0,0,0,1.208,1.208h16.91a1.205,1.205,0,0,0,1.208-1.208V68.079a1.205,1.205,0,0,0-1.208-1.208h-1.812V62.643A6.642,6.642,0,0,0,180.463,56Zm0,1.208a5.41,5.41,0,0,1,5.435,5.435v4.227H175.028V62.643A5.41,5.41,0,0,1,180.463,57.208Z" transform="translate(-170.8 -56)"/>
</svg>
