<svg xmlns="http://www.w3.org/2000/svg" width="22.483" height="22.482" viewBox="0 0 22.483 22.482">
  <path id="Trazado_1492" data-name="Trazado 1492" d="M127.911,46.668a11.241,11.241,0,1,0,11.241,11.241A11.254,11.254,0,0,0,127.911,46.668ZM129.2,62.749v1.6H126.68v-1.48a6.1,6.1,0,0,1-2.331-.7l-.442-.26.906-2.093.762.422a4.48,4.48,0,0,0,2.08.512c.808,0,1.329-.316,1.329-.8,0-.312-.113-.682-1.5-1.146-1.619-.525-3.284-1.3-3.284-3.016a2.986,2.986,0,0,1,2.6-2.764V51.467h2.5V52.9a5.781,5.781,0,0,1,1.882.531l.521.254-.942,2.059-.727-.343a3.933,3.933,0,0,0-1.813-.408c-.692,0-1.107.237-1.107.631,0,.3.118.537,1.691,1.077,1.446.489,3.11,1.289,3.109,3.157a3.167,3.167,0,0,1-2.719,2.893Z" transform="translate(-116.67 -46.668)"/>
</svg>
